P3
64 64
255
32 128 192  32 128 192  32 128 192  32 128 192  32 128 192  32 128 192
32 128 192  32 128 192  32 128 192  32 128 192  32 128 192  32 128 192
32 128 192  32 128 192  32 128 192  32 128 192  32 128 192  32 128 192
32 128 192  32 128 192  32 128 192  32 128 192  32 128 192  32 128 192
32 128 192  32 128 192  32 128 192  32 128 192  32 128 192  32 128 192
32 128 192  32 128 192  32 128 192  32 128 192  32 128 192  32 128 192
32 128 192  32 128 192  32 128 192  32 128 192  32 128 192  32 128 192
32 128 192  32 128 192  32 128 192  32 128 192  32 128 192  32 128 192
32 128 192  32 128 192  32 128 192  32 128 192  32 128 192  32 128 192
32 128 192  32 128 192  32 128 192  32 128 192  32 128 192  32 128 192
32 128 192  32 128 192  32 128 192  32 128 192
32 128 192  32 128 192  32 128 192  32 128 192  32 128 192  32 128 192
32 128 192  32 128 192  32 128 192  32 128 192  32 128 192  32 128 192
32 128 192  32 128 192  32 128 192  32 128 192  32 128 192  32 128 192
32 128 192  32 128 192  32 128 192  32 128 192  32 128 192  32 128 192
32 128 192  32 128 192  32 128 192  32 128 192  32 128 192  32 128 192
32 128 192  32 128 192  32 128 192  32 128 192  32 128 192  32 128 192
32 128 192  32 128 192  32 128 192  32 128 192  32 128 192  32 128 192
32 128 192  32 128 192  32 128 192  32 128 192  32 128 192  32 128 192
32 128 192  32 128 192  32 128 192  32 128 192  32 128 192  32 128 192
32 128 192  32 128 192  32 128 192  32 128 192  32 128 192  32 128 192
32 128 192  32 128 192  32 128 192  32 128 192
32 128 192  32 128 192  32 128 192  32 128 192  32 128 192  32 128 192
32 128 192  32 128 192  32 128 192  32 128 192  32 128 192  32 128 192
32 128 192  32 128 192  32 128 192  32 128 192  32 128 192  32 128 192
32 128 192  32 128 192  32 128 192  32 128 192  32 128 192  32 128 192
32 128 192  32 128 192  32 128 192  32 128 192  32 128 192  32 128 192
32 128 192  32 128 192  32 128 192  32 128 192  32 128 192  32 128 192
32 128 192  32 128 192  32 128 192  32 128 192  32 128 192  32 128 192
32 128 192  32 128 192  32 128 192  32 128 192  32 128 192  32 128 192
32 128 192  32 128 192  32 128 192  32 128 192  32 128 192  32 128 192
32 128 192  32 128 192  32 128 192  32 128 192  32 128 192  32 128 192
32 128 192  32 128 192  32 128 192  32 128 192
32 128 192  32 128 192  32 128 192  32 128 192  32 128 192  32 128 192
32 128 192  32 128 192  32 128 192  32 128 192  32 128 192  32 128 192
32 128 192  32 128 192  32 128 192  32 128 192  32 128 192  32 128 192
32 128 192  32 128 192  32 128 192  32 128 192  32 128 192  32 128 192
32 128 192  32 128 192  32 128 192  32 128 192  32 128 192  32 128 192
32 128 192  32 128 192  32 128 192  96 160 192  32 128 192  32 128 192
32 128 192  32 128 192  32 128 192  32 128 192  32 128 192  32 128 192
32 128 192  32 128 192  32 128 192  32 128 192  32 128 192  32 128 192
32 128 192  32 128 192  32 128 192  32 128 192  32 128 192  32 128 192
32 128 192  32 128 192  32 128 192  32 128 192  32 128 192  32 128 192
32 128 192  32 128 192  32 128 192  32 128 192
32 128 192  32 128 192  32 128 192  32 128 192  32 128 192  32 128 192
32 128 192  32 128 192  32 128 192  32 128 192  32 128 192  32 128 192
32 128 192  32 128 192  32 128 192  32 128 192  32 128 192  32 128 192
32 128 192  32 128 192  32 128 192  32 128 192  32 128 192  32 128 192
32 128 192  32 128 192  32 128 192  32 128 192  32 128 192  32 128 192
32 128 192  32 128 192  32 128 192  96 160 192  96 160 192  32 128 192
32 128 192  32 128 192  32 128 192  32 128 192  32 128 192  32 128 192
32 128 192  32 128 192  32 128 192  32 128 192  32 128 192  32 128 192
32 128 192  32 128 192  32 128 192  32 128 192  32 128 192  32 128 192
32 128 192  32 128 192  32 128 192  32 128 192  32 128 192  32 128 192
32 128 192  32 128 192  32 128 192  32 128 192
32 128 192  32 128 192  32 128 192  32 128 192  32 128 192  32 128 192
32 128 192  32 128 192  32 128 192  32 128 192  32 128 192  32 128 192
32 128 192  32 128 192  32 128 192  32 128 192  32 128 192  32 128 192
32 128 192  32 128 192  32 128 192  32 128 192  32 128 192  32 128 192
32 128 192  32 128 192  32 128 192  32 128 192  32 128 192  32 128 192
32 128 192  32 128 192  32 128 192  64 128 192  166 202 240  32 128 192
32 128 192  32 128 192  32 128 192  32 128 192  32 128 192  32 128 192
32 128 192  32 128 192  32 128 192  32 128 192  32 128 192  32 128 192
32 128 192  32 128 192  32 128 192  32 128 192  32 128 192  32 128 192
32 128 192  32 128 192  32 128 192  32 128 192  32 128 192  32 128 192
32 128 192  32 128 192  32 128 192  32 128 192
32 128 192  32 128 192  32 128 192  32 128 192  32 128 192  32 128 192
32 128 192  32 128 192  32 128 192  32 128 192  32 128 192  32 128 192
32 128 192  32 128 192  32 128 192  32 128 192  32 128 192  32 128 192
32 128 192  32 128 192  32 128 192  32 128 192  32 128 192  32 128 192
32 128 192  32 128 192  32 128 192  32 128 192  32 128 192  32 128 192
32 128 192  32 128 192  32 128 192  32 128 192  255 255 255  96 160 192
32 128 192  32 128 192  32 128 192  32 128 192  32 128 192  32 128 192
32 128 192  32 128 192  32 128 192  32 128 192  32 128 192  32 128 192
32 128 192  32 128 192  32 128 192  32 128 192  32 128 192  32 128 192
32 128 192  32 128 192  32 128 192  32 128 192  32 128 192  32 128 192
32 128 192  32 128 192  32 128 192  32 128 192
32 128 192  32 128 192  32 128 192  32 128 192  32 128 192  32 128 192
32 128 192  32 128 192  32 128 192  32 128 192  32 128 192  32 128 192
32 128 192  32 128 192  32 128 192  32 128 192  32 128 192  32 128 192
32 128 192  32 128 192  32 128 192  32 128 192  32 128 192  32 128 192
32 128 192  32 128 192  32 128 192  32 128 192  32 128 192  32 128 192
32 128 192  32 128 192  32 128 192  0 128 192  255 255 255  166 202 240
32 128 192  32 128 192  32 128 192  32 128 192  32 128 192  32 128 192
32 128 192  32 128 192  32 128 192  32 128 192  32 128 192  32 128 192
32 128 192  32 128 192  32 128 192  32 128 192  32 128 192  32 128 192
32 128 192  32 128 192  32 128 192  32 128 192  32 128 192  32 128 192
32 128 192  32 128 192  32 128 192  32 128 192
32 128 192  32 128 192  32 128 192  32 128 192  32 128 192  32 128 192
32 128 192  32 128 192  32 128 192  32 128 192  32 128 192  32 128 192
32 128 192  32 128 192  32 128 192  32 128 192  32 128 192  32 128 192
32 128 192  32 128 192  32 128 192  32 128 192  32 128 192  32 128 192
32 128 192  32 128 192  32 128 192  32 128 192  32 128 192  32 128 192
32 128 192  32 128 192  32 128 192  0 128 192  255 255 255  255 255 255
64 128 192  32 128 192  32 128 192  32 128 192  32 128 192  32 128 192
32 128 192  32 128 192  32 128 192  32 128 192  32 128 192  32 128 192
32 128 192  32 128 192  32 128 192  32 128 192  32 128 192  32 128 192
32 128 192  32 128 192  32 128 192  32 128 192  32 128 192  32 128 192
32 128 192  32 128 192  32 128 192  32 128 192
32 128 192  32 128 192  32 128 192  32 128 192  32 128 192  32 128 192
32 128 192  32 128 192  32 128 192  32 128 192  32 128 192  32 128 192
32 128 192  32 128 192  32 128 192  32 128 192  32 128 192  32 128 192
32 128 192  32 128 192  32 128 192  32 128 192  32 128 192  32 128 192
32 128 192  32 128 192  32 128 192  32 128 192  32 128 192  32 128 192
32 128 192  32 128 192  32 128 192  32 128 192  255 255 255  255 255 255
128 160 192  32 128 192  32 128 192  32 128 192  32 128 192  32 128 192
32 128 192  32 128 192  32 128 192  32 128 192  32 128 192  32 128 192
32 128 192  32 128 192  32 128 192  32 128 192  32 128 192  32 128 192
32 128 192  32 128 192  32 128 192  32 128 192  32 128 192  32 128 192
32 128 192  32 128 192  32 128 192  32 128 192
32 128 192  32 128 192  32 128 192  32 128 192  32 128 192  32 128 192
32 128 192  32 128 192  32 128 192  32 128 192  32 128 192  32 128 192
32 128 192  32 128 192  32 128 192  32 128 192  32 128 192  32 128 192
32 128 192  32 128 192  32 128 192  32 128 192  32 128 192  32 128 192
32 128 192  32 128 192  32 128 192  32 128 192  32 128 192  32 128 192
32 128 192  32 128 192  32 128 192  64 128 192  255 255 255  255 255 255
166 202 240  32 128 192  32 128 192  32 128 192  32 128 192  32 128 192
32 128 192  32 128 192  32 128 192  32 128 192  32 128 192  32 128 192
32 128 192  32 128 192  32 128 192  32 128 192  32 128 192  32 128 192
32 128 192  32 128 192  32 128 192  32 128 192  32 128 192  32 128 192
32 128 192  32 128 192  32 128 192  32 128 192
32 128 192  32 128 192  32 128 192  32 128 192  32 128 192  32 128 192
32 128 192  32 128 192  32 128 192  32 128 192  32 128 192  32 128 192
32 128 192  32 128 192  32 128 192  32 128 192  32 128 192  32 128 192
32 128 192  32 128 192  32 128 192  32 128 192  32 128 192  32 128 192
32 128 192  32 128 192  32 128 192  32 128 192  32 128 192  32 128 192
32 128 192  32 128 192  32 128 192  96 160 192  255 255 255  255 255 255
255 255 255  32 128 192  32 128 192  32 128 192  32 128 192  32 128 192
32 128 192  32 128 192  32 128 192  32 128 192  32 128 192  32 128 192
32 128 192  32 128 192  32 128 192  32 128 192  32 128 192  32 128 192
32 128 192  32 128 192  32 128 192  32 128 192  32 128 192  32 128 192
32 128 192  32 128 192  32 128 192  32 128 192
32 128 192  32 128 192  32 128 192  32 128 192  32 128 192  32 128 192
32 128 192  32 128 192  32 128 192  32 128 192  32 128 192  32 128 192
32 128 192  32 128 192  32 128 192  32 128 192  32 128 192  32 128 192
32 128 192  32 128 192  32 128 192  32 128 192  32 128 192  32 128 192
32 128 192  32 128 192  32 128 192  32 128 192  32 128 192  32 128 192
32 128 192  32 128 192  0 128 192  166 202 240  255 255 255  255 255 255
255 255 255  64 128 192  32 128 192  32 128 192  32 128 192  32 128 192
32 128 192  32 128 192  32 128 192  32 128 192  32 128 192  32 128 192
32 128 192  32 128 192  32 128 192  32 128 192  32 128 192  32 128 192
32 128 192  32 128 192  32 128 192  32 128 192  32 128 192  32 128 192
32 128 192  32 128 192  32 128 192  32 128 192
32 128 192  32 128 192  32 128 192  32 128 192  32 128 192  32 128 192
32 128 192  32 128 192  32 128 192  32 128 192  32 128 192  32 128 192
32 128 192  32 128 192  32 128 192  32 128 192  32 128 192  32 128 192
32 128 192  32 128 192  32 128 192  32 128 192  32 128 192  32 128 192
32 128 192  32 128 192  32 128 192  32 128 192  32 128 192  32 128 192
32 128 192  32 128 192  64 128 192  255 255 255  255 255 255  255 255 255
255 255 255  64 160 192  32 128 192  32 128 192  32 128 192  32 128 192
32 128 192  32 128 192  32 128 192  32 128 192  32 128 192  32 128 192
32 128 192  32 128 192  32 128 192  32 128 192  32 128 192  32 128 192
32 128 192  32 128 192  32 128 192  32 128 192  32 128 192  32 128 192
32 128 192  32 128 192  32 128 192  32 128 192
32 128 192  32 128 192  32 128 192  32 128 192  32 128 192  32 128 192
32 128 192  32 128 192  32 128 192  32 128 192  32 128 192  32 128 192
32 128 192  32 128 192  32 128 192  32 128 192  32 128 192  32 128 192
32 128 192  32 128 192  32 128 192  32 128 192  32 128 192  32 128 192
32 128 192  32 128 192  32 128 192  32 128 192  32 128 192  32 128 192
32 128 192  0 96 192  166 202 240  255 255 255  255 255 255  255 255 255
255 255 255  96 160 192  32 128 192  32 128 192  32 128 192  32 128 192
32 128 192  32 128 192  32 128 192  32 128 192  32 128 192  32 128 192
32 128 192  32 128 192  32 128 192  32 128 192  32 128 192  32 128 192
32 128 192  32 128 192  32 128 192  32 128 192  32 128 192  32 128 192
32 128 192  32 128 192  32 128 192  32 128 192
32 128 192  32 128 192  32 128 192  32 128 192  32 128 192  32 128 192
32 128 192  32 128 192  32 128 192  32 128 192  32 128 192  32 128 192
32 128 192  32 128 192  32 128 192  32 128 192  32 128 192  32 128 192
32 128 192  32 128 192  32 128 192  32 128 192  32 128 192  32 128 192
32 128 192  32 128 192  32 128 192  32 128 192  32 128 192  32 128 192
32 128 192  128 160 192  255 255 255  255 255 255  255 255 255  255 255 255
255 255 255  96 160 192  32 128 192  32 128 192  32 128 192  32 128 192
32 128 192  32 128 192  32 128 192  32 128 192  32 128 192  32 128 192
32 128 192  32 128 192  32 128 192  32 128 192  32 128 192  32 128 192
32 128 192  32 128 192  32 128 192  32 128 192  32 128 192  32 128 192
32 128 192  32 128 192  32 128 192  32 128 192
32 128 192  32 128 192  32 128 192  32 128 192  32 128 192  32 128 192
32 128 192  32 128 192  32 128 192  32 128 192  32 128 192  32 128 192
32 128 192  32 128 192  32 128 192  32 128 192  32 128 192  32 128 192
32 128 192  32 128 192  32 128 192  32 128 192  32 128 192  32 128 192
32 128 192  32 128 192  32 128 192  32 128 192  32 128 192  32 128 192
96 160 192  255 255 255  255 255 255  255 255 255  255 255 255  255 255 255
255 255 255  64 160 192  32 128 192  32 128 192  32 128 192  32 128 192
32 128 192  32 128 192  32 128 192  32 128 192  32 128 192  32 128 192
32 128 192  32 128 192  32 128 192  32 128 192  32 128 192  32 128 192
32 128 192  32 128 192  32 128 192  32 128 192  32 128 192  32 128 192
32 128 192  32 128 192  32 128 192  32 128 192
32 128 192  32 128 192  32 128 192  32 128 192  32 128 192  32 128 192
32 128 192  32 128 192  32 128 192  32 128 192  32 128 192  32 128 192
32 128 192  32 128 192  32 128 192  32 128 192  32 128 192  32 128 192
32 128 192  32 128 192  32 128 192  32 128 192  32 128 192  32 128 192
32 128 192  32 128 192  32 128 192  32 128 192  32 128 192  166 202 240
255 255 255  255 255 255  255 255 255  255 255 255  255 255 255  255 255 255
255 255 255  64 128 192  32 128 192  32 128 192  32 128 192  32 128 192
32 128 192  32 128 192  32 128 192  32 128 192  32 128 192  32 128 192
32 128 192  32 128 192  32 128 192  32 128 192  32 128 192  32 128 192
32 128 192  32 128 192  32 128 192  32 128 192  32 128 192  32 128 192
32 128 192  32 128 192  32 128 192  32 128 192
32 128 192  32 128 192  32 128 192  32 128 192  32 128 192  32 128 192
32 128 192  32 128 192  32 128 192  32 128 192  32 128 192  32 128 192
32 128 192  32 128 192  32 128 192  32 128 192  32 128 192  32 128 192
32 128 192  32 128 192  32 128 192  32 128 192  32 128 192  32 128 192
32 128 192  32 128 192  32 128 192  32 128 192  166 202 240  255 255 255
255 255 255  255 255 255  255 255 255  255 255 255  255 255 255  255 255 255
255 251 240  32 128 192  32 128 192  32 128 192  32 128 192  32 128 192
32 128 192  32 128 192  32 128 192  32 128 192  32 128 192  32 128 192
32 128 192  32 128 192  32 128 192  32 128 192  32 128 192  32 128 192
32 128 192  32 128 192  32 128 192  32 128 192  32 128 192  32 128 192
32 128 192  32 128 192  32 128 192  32 128 192
32 128 192  32 128 192  32 128 192  32 128 192  32 128 192  32 128 192
32 128 192  32 128 192  32 128 192  32 128 192  32 128 192  32 128 192
32 128 192  32 128 192  32 128 192  32 128 192  32 128 192  32 128 192
32 128 192  32 128 192  32 128 192  32 128 192  32 128 192  32 128 192
32 128 192  32 128 192  64 128 192  255 251 240  255 255 255  255 255 255
255 255 255  255 255 255  255 255 255  255 255 255  255 255 255  255 255 255
166 202 240  32 128 192  32 128 192  32 128 192  32 128 192  32 128 192
32 128 192  32 128 192  32 128 192  32 128 192  32 128 192  32 128 192
32 128 192  32 128 192  32 128 192  32 128 192  32 128 192  32 128 192
32 128 192  32 128 192  32 128 192  32 128 192  32 128 192  32 128 192
32 128 192  32 128 192  32 128 192  32 128 192
32 128 192  32 128 192  32 128 192  32 128 192  32 128 192  32 128 192
32 128 192  32 128 192  32 128 192  32 128 192  32 128 192  32 128 192
32 128 192  32 128 192  32 128 192  32 128 192  32 128 192  32 128 192
32 128 192  32 128 192  32 128 192  32 128 192  32 128 192  32 128 192
32 128 192  96 160 192  255 255 255  255 255 255  255 255 255  255 255 255
255 255 255  255 255 255  255 255 255  255 255 255  255 255 255  255 255 255
64 128 192  32 128 192  32 128 192  32 128 192  32 128 192  32 128 192
32 128 192  32 128 192  96 160 192  64 128 192  32 128 192  32 128 192
32 128 192  32 128 192  32 128 192  32 128 192  32 128 192  32 128 192
32 128 192  32 128 192  32 128 192  32 128 192  32 128 192  32 128 192
32 128 192  32 128 192  32 128 192  32 128 192
32 128 192  32 128 192  32 128 192  32 128 192  32 128 192  32 128 192
32 128 192  32 128 192  32 128 192  32 128 192  32 128 192  32 128 192
32 128 192  32 128 192  32 128 192  32 128 192  32 128 192  32 128 192
32 128 192  32 128 192  32 128 192  32 128 192  32 128 192  32 128 192
96 160 192  255 255 255  255 255 255  255 255 255  255 255 255  255 255 255
255 255 255  255 255 255  255 255 255  255 255 255  255 255 255  166 202 240
32 128 192  32 128 192  32 128 192  32 128 192  32 128 192  32 128 192
32 128 192  32 128 192  166 202 240  166 202 240  32 128 192  32 128 192
32 128 192  32 128 192  32 128 192  32 128 192  32 128 192  32 128 192
32 128 192  32 128 192  32 128 192  32 128 192  32 128 192  32 128 192
32 128 192  32 128 192  32 128 192  32 128 192
32 128 192  32 128 192  32 128 192  32 128 192  32 128 192  32 128 192
32 128 192  32 128 192  32 128 192  32 128 192  32 128 192  32 128 192
32 128 192  32 128 192  32 128 192  32 128 192  32 128 192  32 128 192
32 128 192  32 128 192  32 128 192  32 128 192  32 128 192  128 160 192
255 255 255  255 255 255  255 255 255  255 255 255  255 255 255  255 255 255
255 255 255  255 255 255  255 255 255  255 255 255  255 255 255  32 128 192
32 128 192  32 128 192  32 128 192  32 128 192  32 128 192  32 128 192
32 128 192  32 128 192  166 202 240  255 255 255  32 128 192  32 128 192
32 128 192  32 128 192  32 128 192  32 128 192  32 128 192  32 128 192
32 128 192  32 128 192  32 128 192  32 128 192  32 128 192  32 128 192
32 128 192  32 128 192  32 128 192  32 128 192
32 128 192  32 128 192  32 128 192  32 128 192  32 128 192  32 128 192
32 128 192  32 128 192  32 128 192  32 128 192  32 128 192  32 128 192
32 128 192  32 128 192  32 128 192  32 128 192  32 128 192  32 128 192
32 128 192  32 128 192  32 128 192  32 128 192  128 160 192  255 255 255
255 255 255  255 255 255  255 255 255  255 255 255  255 255 255  255 255 255
255 255 255  255 255 255  255 255 255  255 255 255  32 128 192  32 128 192
32 128 192  32 128 192  32 128 192  32 128 192  32 128 192  32 128 192
32 128 192  32 128 192  166 202 240  255 255 255  96 160 192  32 128 192
32 128 192  32 128 192  32 128 192  32 128 192  32 128 192  32 128 192
32 128 192  32 128 192  32 128 192  32 128 192  32 128 192  32 128 192
32 128 192  32 128 192  32 128 192  32 128 192
32 128 192  32 128 192  32 128 192  32 128 192  32 128 192  32 128 192
32 128 192  32 128 192  32 128 192  32 128 192  32 128 192  32 128 192
32 128 192  32 128 192  32 128 192  32 128 192  32 128 192  32 128 192
32 128 192  32 128 192  32 128 192  96 160 192  255 255 255  255 255 255
255 255 255  255 255 255  255 255 255  255 255 255  255 255 255  255 255 255
255 255 255  255 255 255  255 251 240  32 128 192  32 128 192  32 128 192
32 128 192  32 128 192  32 128 192  32 128 192  32 128 192  32 128 192
32 128 192  32 128 192  166 202 240  255 255 255  166 202 240  32 128 192
32 128 192  32 128 192  32 128 192  32 128 192  32 128 192  32 128 192
32 128 192  32 128 192  32 128 192  32 128 192  32 128 192  32 128 192
32 128 192  32 128 192  32 128 192  32 128 192
32 128 192  32 128 192  32 128 192  32 128 192  32 128 192  32 128 192
32 128 192  32 128 192  32 128 192  32 128 192  32 128 192  32 128 192
32 128 192  32 128 192  32 128 192  32 128 192  32 128 192  32 128 192
32 128 192  32 128 192  64 128 192  255 255 255  255 255 255  255 255 255
255 255 255  255 255 255  255 255 255  255 255 255  255 255 255  255 255 255
255 255 255  255 255 255  32 128 192  32 128 192  96 160 192  64 160 192
32 128 192  32 128 192  32 128 192  32 128 192  32 128 192  32 128 192
32 128 192  32 128 192  255 255 255  255 255 255  255 251 240  0 128 192
32 128 192  32 128 192  32 128 192  32 128 192  32 128 192  32 128 192
32 128 192  32 128 192  32 128 192  32 128 192  32 128 192  32 128 192
32 128 192  32 128 192  32 128 192  32 128 192
32 128 192  32 128 192  32 128 192  32 128 192  32 128 192  32 128 192
32 128 192  32 128 192  32 128 192  32 128 192  32 128 192  32 128 192
32 128 192  32 128 192  32 128 192  32 128 192  32 128 192  32 128 192
32 128 192  32 128 192  166 202 240  255 255 255  255 255 255  255 255 255
255 255 255  255 255 255  255 255 255  255 255 255  255 255 255  255 255 255
255 255 255  64 128 192  32 128 192  32 128 192  255 255 255  64 128 192
32 128 192  32 128 192  32 128 192  32 128 192  32 128 192  32 128 192
32 128 192  64 160 192  255 255 255  255 255 255  255 255 255  0 96 192
32 128 192  32 128 192  32 128 192  32 128 192  32 128 192  32 128 192
32 128 192  32 128 192  32 128 192  32 128 192  32 128 192  32 128 192
32 128 192  32 128 192  32 128 192  32 128 192
32 128 192  32 128 192  32 128 192  32 128 192  32 128 192  32 128 192
32 128 192  32 128 192  32 128 192  32 128 192  32 128 192  32 128 192
32 128 192  32 128 192  32 128 192  32 128 192  32 128 192  32 128 192
32 128 192  64 160 192  255 255 255  255 255 255  255 255 255  255 255 255
255 255 255  255 255 255  255 255 255  255 255 255  255 255 255  255 255 255
166 202 240  0 128 192  0 128 192  166 202 240  255 255 255  64 128 192
32 128 192  32 128 192  32 128 192  32 128 192  32 128 192  32 128 192
32 128 192  166 202 240  255 255 255  255 255 255  255 255 255  0 96 192
32 128 192  32 128 192  32 128 192  32 128 192  32 128 192  32 128 192
32 128 192  32 128 192  32 128 192  32 128 192  32 128 192  32 128 192
32 128 192  32 128 192  32 128 192  32 128 192
32 128 192  32 128 192  32 128 192  32 128 192  32 128 192  32 128 192
32 128 192  32 128 192  32 128 192  32 128 192  32 128 192  32 128 192
32 128 192  32 128 192  32 128 192  32 128 192  32 128 192  32 128 192
32 128 192  166 202 240  255 255 255  255 255 255  255 255 255  255 255 255
255 255 255  255 255 255  255 255 255  255 255 255  255 255 255  255 255 255
96 160 192  32 128 192  64 128 192  255 255 255  255 255 255  96 160 192
32 128 192  32 128 192  32 128 192  32 128 192  32 128 192  32 128 192
32 128 192  255 255 255  255 255 255  255 255 255  255 255 255  0 96 192
32 128 192  32 128 192  32 128 192  32 128 192  32 128 192  32 128 192
32 128 192  32 128 192  32 128 192  32 128 192  32 128 192  32 128 192
32 128 192  32 128 192  32 128 192  32 128 192
32 128 192  32 128 192  32 128 192  32 128 192  32 128 192  32 128 192
32 128 192  32 128 192  32 128 192  32 128 192  32 128 192  32 128 192
32 128 192  32 128 192  32 128 192  32 128 192  32 128 192  32 128 192
32 128 192  255 251 240  255 255 255  255 255 255  255 255 255  255 255 255
255 255 255  255 255 255  255 255 255  255 255 255  255 255 255  255 255 255
64 160 192  32 128 192  166 202 240  255 255 255  255 255 255  166 202 240
32 128 192  32 128 192  32 128 192  32 128 192  32 128 192  0 128 192
166 202 240  255 255 255  255 255 255  255 255 255  255 255 255  0 128 192
32 128 192  32 128 192  32 128 192  32 128 192  32 128 192  32 128 192
32 128 192  32 128 192  32 128 192  32 128 192  32 128 192  32 128 192
32 128 192  32 128 192  32 128 192  32 128 192
32 128 192  32 128 192  32 128 192  32 128 192  32 128 192  32 128 192
32 128 192  32 128 192  32 128 192  32 128 192  32 128 192  32 128 192
32 128 192  32 128 192  32 128 192  32 128 192  32 128 192  32 128 192
64 128 192  255 255 255  255 255 255  255 255 255  255 255 255  255 255 255
255 255 255  255 255 255  255 255 255  255 255 255  255 255 255  255 255 255
64 160 192  0 96 192  166 202 240  255 255 255  255 255 255  255 255 255
96 160 192  32 128 192  32 128 192  32 128 192  32 128 192  166 202 240
255 255 255  255 255 255  255 255 255  255 255 255  166 202 240  32 128 192
32 128 192  32 128 192  32 128 192  32 128 192  32 128 192  32 128 192
32 128 192  32 128 192  32 128 192  32 128 192  32 128 192  32 128 192
32 128 192  32 128 192  32 128 192  32 128 192
32 128 192  32 128 192  32 128 192  32 128 192  32 128 192  32 128 192
32 128 192  32 128 192  32 128 192  32 128 192  32 128 192  32 128 192
32 128 192  32 128 192  32 128 192  32 128 192  32 128 192  32 128 192
64 160 192  255 255 255  255 255 255  255 255 255  255 255 255  255 255 255
255 255 255  255 255 255  255 255 255  255 255 255  255 255 255  255 255 255
96 160 192  0 96 192  166 202 240  255 255 255  255 255 255  255 255 255
255 255 255  255 251 240  166 202 240  166 202 240  255 255 255  255 255 255
255 255 255  255 255 255  255 255 255  255 255 255  166 202 240  32 128 192
32 128 192  32 128 192  32 128 192  32 128 192  32 128 192  32 128 192
32 128 192  32 128 192  32 128 192  32 128 192  32 128 192  32 128 192
32 128 192  32 128 192  32 128 192  32 128 192
32 128 192  32 128 192  32 128 192  32 128 192  32 128 192  32 128 192
32 128 192  32 128 192  32 128 192  32 128 192  32 128 192  32 128 192
32 128 192  32 128 192  32 128 192  32 128 192  32 128 192  32 128 192
96 160 192  166 202 240  32 128 192  0 96 192  96 160 192  255 255 255
255 255 255  255 255 255  255 255 255  255 255 255  255 255 255  255 255 255
166 202 240  0 96 192  166 202 240  255 255 255  255 255 255  255 255 255
255 255 255  255 255 255  255 255 255  255 255 255  255 255 255  255 255 255
255 255 255  255 255 255  255 255 255  255 255 255  64 160 192  32 128 192
32 128 192  32 128 192  32 128 192  32 128 192  32 128 192  32 128 192
32 128 192  32 128 192  32 128 192  32 128 192  32 128 192  32 128 192
32 128 192  32 128 192  32 128 192  32 128 192
32 128 192  32 128 192  32 128 192  32 128 192  32 128 192  32 128 192
32 128 192  32 128 192  32 128 192  32 128 192  32 128 192  32 128 192
32 128 192  32 128 192  32 128 192  32 128 192  32 128 192  32 128 192
64 128 192  32 128 192  32 128 192  32 128 192  32 128 192  64 160 192
255 255 255  255 255 255  255 255 255  255 255 255  255 255 255  255 255 255
255 255 255  64 128 192  32 128 192  255 255 255  255 255 255  255 255 255
255 255 255  255 255 255  255 255 255  255 255 255  255 255 255  255 255 255
255 255 255  255 255 255  255 255 255  255 255 255  32 128 192  32 128 192
32 128 192  32 128 192  32 128 192  32 128 192  32 128 192  32 128 192
32 128 192  32 128 192  32 128 192  32 128 192  32 128 192  32 128 192
32 128 192  32 128 192  32 128 192  32 128 192
32 128 192  32 128 192  32 128 192  32 128 192  32 128 192  32 128 192
32 128 192  32 128 192  32 128 192  32 128 192  32 128 192  32 128 192
32 128 192  32 128 192  32 128 192  32 128 192  32 128 192  32 128 192
32 128 192  32 128 192  32 128 192  32 128 192  32 128 192  32 128 192
128 192 192  255 255 255  255 255 255  255 255 255  255 255 255  255 255 255
255 255 255  255 251 240  0 128 192  64 128 192  255 255 255  255 255 255
255 255 255  255 255 255  255 255 255  255 255 255  255 255 255  255 255 255
255 255 255  255 255 255  255 255 255  96 160 192  32 128 192  32 128 192
32 128 192  32 128 192  32 128 192  32 128 192  32 128 192  32 128 192
32 128 192  32 128 192  32 128 192  32 128 192  32 128 192  32 128 192
32 128 192  32 128 192  32 128 192  32 128 192
32 128 192  32 128 192  32 128 192  32 128 192  32 128 192  32 128 192
32 128 192  32 128 192  32 128 192  32 128 192  32 128 192  32 128 192
32 128 192  32 128 192  32 128 192  32 128 192  32 128 192  32 128 192
32 128 192  32 128 192  32 128 192  32 128 192  32 128 192  32 128 192
32 128 192  166 202 240  255 255 255  255 255 255  255 255 255  255 255 255
255 255 255  255 255 255  255 251 240  64 128 192  32 128 192  166 202 240
255 255 255  255 255 255  255 255 255  255 255 255  255 255 255  255 255 255
255 255 255  255 255 255  166 202 240  32 128 192  32 128 192  32 128 192
32 128 192  32 128 192  32 128 192  32 128 192  32 128 192  32 128 192
32 128 192  32 128 192  32 128 192  32 128 192  32 128 192  32 128 192
32 128 192  32 128 192  32 128 192  32 128 192
32 128 192  32 128 192  32 128 192  32 128 192  32 128 192  32 128 192
32 128 192  32 128 192  32 128 192  32 128 192  32 128 192  32 128 192
32 128 192  32 128 192  32 128 192  32 128 192  32 128 192  32 128 192
32 128 192  32 128 192  32 128 192  32 128 192  32 128 192  32 128 192
32 128 192  32 128 192  96 160 192  255 255 255  255 255 255  255 255 255
255 255 255  255 255 255  255 255 255  255 255 255  166 202 240  96 160 192
128 192 192  255 251 240  255 255 255  255 255 255  255 255 255  255 255 255
255 255 255  166 202 240  32 128 192  32 128 192  32 128 192  32 128 192
32 128 192  32 128 192  32 128 192  32 128 192  32 128 192  32 128 192
32 128 192  32 128 192  32 128 192  32 128 192  32 128 192  32 128 192
32 128 192  32 128 192  32 128 192  32 128 192
32 128 192  32 128 192  32 128 192  32 128 192  32 128 192  32 128 192
32 128 192  32 128 192  32 128 192  32 128 192  32 128 192  32 128 192
32 128 192  32 128 192  32 128 192  32 128 192  32 128 192  32 128 192
32 128 192  32 128 192  32 128 192  32 128 192  32 128 192  32 128 192
32 128 192  32 128 192  32 128 192  32 128 192  166 202 240  255 255 255
255 255 255  255 255 255  255 255 255  255 255 255  255 255 255  255 255 255
255 255 255  255 255 255  255 255 255  255 255 255  255 255 255  255 255 255
166 202 240  32 128 192  32 128 192  32 128 192  32 128 192  32 128 192
32 128 192  32 128 192  32 128 192  32 128 192  32 128 192  32 128 192
32 128 192  32 128 192  32 128 192  32 128 192  32 128 192  32 128 192
32 128 192  32 128 192  32 128 192  32 128 192
32 128 192  32 128 192  32 128 192  32 128 192  32 128 192  32 128 192
32 128 192  32 128 192  32 128 192  32 128 192  32 128 192  32 128 192
32 128 192  32 128 192  32 128 192  32 128 192  32 128 192  32 128 192
32 128 192  32 128 192  32 128 192  32 128 192  32 128 192  32 128 192
32 128 192  32 128 192  32 128 192  32 128 192  32 128 192  32 128 192
166 202 240  255 255 255  255 255 255  255 255 255  255 255 255  255 255 255
255 255 255  255 255 255  255 255 255  255 255 255  166 202 240  64 128 192
32 128 192  32 128 192  32 128 192  32 128 192  32 128 192  32 128 192
32 128 192  32 128 192  32 128 192  32 128 192  32 128 192  32 128 192
32 128 192  32 128 192  32 128 192  32 128 192  32 128 192  32 128 192
32 128 192  32 128 192  32 128 192  32 128 192
32 128 192  32 128 192  32 128 192  32 128 192  32 128 192  32 128 192
32 128 192  32 128 192  32 128 192  32 128 192  32 128 192  32 128 192
32 128 192  32 128 192  32 128 192  32 128 192  32 128 192  32 128 192
32 128 192  32 128 192  32 128 192  32 128 192  32 128 192  32 128 192
32 128 192  32 128 192  32 128 192  32 128 192  32 128 192  32 128 192
32 128 192  0 96 192  64 128 192  96 160 192  128 192 192  166 202 240
166 202 240  128 160 192  64 160 192  32 128 192  32 128 192  32 128 192
32 128 192  32 128 192  32 128 192  32 128 192  32 128 192  32 128 192
32 128 192  32 128 192  32 128 192  32 128 192  32 128 192  32 128 192
32 128 192  32 128 192  32 128 192  32 128 192  32 128 192  32 128 192
32 128 192  32 128 192  32 128 192  32 128 192
32 128 192  32 128 192  32 128 192  32 128 192  32 128 192  32 128 192
32 128 192  32 128 192  32 128 192  32 128 192  32 128 192  32 128 192
32 128 192  32 128 192  32 128 192  32 128 192  32 128 192  32 128 192
32 128 192  32 128 192  32 128 192  32 128 192  32 128 192  32 128 192
32 128 192  32 128 192  32 128 192  32 128 192  32 128 192  32 128 192
32 128 192  32 128 192  32 128 192  32 128 192  32 128 192  32 128 192
32 128 192  32 128 192  32 128 192  32 128 192  32 128 192  32 128 192
32 128 192  32 128 192  32 128 192  32 128 192  32 128 192  32 128 192
32 128 192  32 128 192  32 128 192  32 128 192  32 128 192  32 128 192
32 128 192  32 128 192  32 128 192  32 128 192  32 128 192  32 128 192
32 128 192  32 128 192  32 128 192  32 128 192
32 128 192  32 128 192  32 128 192  32 128 192  32 128 192  32 128 192
32 128 192  32 128 192  32 128 192  32 128 192  32 128 192  32 128 192
32 128 192  32 128 192  32 128 192  32 128 192  32 128 192  32 128 192
32 128 192  32 128 192  32 128 192  32 128 192  32 128 192  32 128 192
32 128 192  32 128 192  32 128 192  32 128 192  32 128 192  32 128 192
32 128 192  32 128 192  32 128 192  32 128 192  32 128 192  32 128 192
32 128 192  32 128 192  32 128 192  32 128 192  32 128 192  32 128 192
32 128 192  32 128 192  32 128 192  32 128 192  32 128 192  32 128 192
32 128 192  32 128 192  32 128 192  32 128 192  32 128 192  32 128 192
32 128 192  32 128 192  32 128 192  32 128 192  32 128 192  32 128 192
32 128 192  32 128 192  32 128 192  32 128 192
32 128 192  32 128 192  32 128 192  32 128 192  32 128 192  32 128 192
32 128 192  32 128 192  32 128 192  32 128 192  32 128 192  32 128 192
32 128 192  32 128 192  32 128 192  32 128 192  32 128 192  32 128 192
32 128 192  32 128 192  32 128 192  32 128 192  32 128 192  32 128 192
32 128 192  32 128 192  32 128 192  32 128 192  32 128 192  32 128 192
32 128 192  32 128 192  32 128 192  32 128 192  32 128 192  32 128 192
32 128 192  32 128 192  32 128 192  96 160 192  96 160 192  64 160 192
32 128 192  32 128 192  32 128 192  32 128 192  32 128 192  32 128 192
32 128 192  32 128 192  32 128 192  32 128 192  32 128 192  32 128 192
32 128 192  32 128 192  32 128 192  32 128 192  32 128 192  32 128 192
32 128 192  32 128 192  32 128 192  32 128 192
32 128 192  32 128 192  32 128 192  32 128 192  32 128 192  32 128 192
32 128 192  32 128 192  32 128 192  32 128 192  32 128 192  32 128 192
32 128 192  32 128 192  166 202 240  255 251 240  166 202 240  166 202 240
166 202 240  166 202 240  166 202 240  166 202 240  32 128 192  255 255 255
255 251 240  166 202 240  166 202 240  166 202 240  166 202 240  166 202 240
32 128 192  32 128 192  32 128 192  32 128 192  32 128 192  32 128 192
32 128 192  32 128 192  32 128 192  166 202 240  255 255 255  96 160 192
32 128 192  32 128 192  32 128 192  32 128 192  32 128 192  32 128 192
32 128 192  32 128 192  32 128 192  32 128 192  32 128 192  32 128 192
32 128 192  32 128 192  32 128 192  32 128 192  32 128 192  32 128 192
32 128 192  32 128 192  32 128 192  32 128 192
32 128 192  32 128 192  32 128 192  32 128 192  32 128 192  32 128 192
32 128 192  32 128 192  32 128 192  32 128 192  32 128 192  32 128 192
32 128 192  32 128 192  128 192 192  255 255 255  128 160 192  166 202 240
255 255 255  166 202 240  166 202 240  255 255 255  32 128 192  166 202 240
166 202 240  166 202 240  166 202 240  255 251 240  255 255 255  166 202 240
32 128 192  32 128 192  32 128 192  32 128 192  32 128 192  32 128 192
32 128 192  32 128 192  32 128 192  166 202 240  255 255 255  64 128 192
32 128 192  32 128 192  32 128 192  64 128 192  96 160 192  32 128 192
32 128 192  32 128 192  32 128 192  32 128 192  32 128 192  32 128 192
32 128 192  32 128 192  32 128 192  32 128 192  32 128 192  32 128 192
32 128 192  32 128 192  32 128 192  32 128 192
32 128 192  32 128 192  32 128 192  32 128 192  32 128 192  32 128 192
32 128 192  32 128 192  32 128 192  32 128 192  32 128 192  32 128 192
32 128 192  32 128 192  128 160 192  255 255 255  0 96 192  96 160 192
255 251 240  0 96 192  64 128 192  255 255 255  32 128 192  0 96 192
32 128 192  0 96 192  64 160 192  255 255 255  166 202 240  32 128 192
32 128 192  32 128 192  32 128 192  32 128 192  32 128 192  128 160 192
64 128 192  32 128 192  32 128 192  166 202 240  255 255 255  64 128 192
32 128 192  32 128 192  32 128 192  64 128 192  166 202 240  32 128 192
32 128 192  32 128 192  32 128 192  32 128 192  32 128 192  32 128 192
32 128 192  32 128 192  32 128 192  32 128 192  32 128 192  32 128 192
32 128 192  32 128 192  32 128 192  32 128 192
32 128 192  32 128 192  32 128 192  32 128 192  32 128 192  32 128 192
32 128 192  32 128 192  32 128 192  32 128 192  32 128 192  32 128 192
32 128 192  32 128 192  96 160 192  255 255 255  166 202 240  166 202 240
255 255 255  166 202 240  166 202 240  255 255 255  32 128 192  96 160 192
255 255 255  166 202 240  255 255 255  166 202 240  32 128 192  32 128 192
32 128 192  32 128 192  32 128 192  32 128 192  64 128 192  255 255 255
255 251 240  32 128 192  32 128 192  166 202 240  255 255 255  64 128 192
32 128 192  32 128 192  32 128 192  166 202 240  255 255 255  32 128 192
32 128 192  32 128 192  32 128 192  32 128 192  32 128 192  32 128 192
32 128 192  32 128 192  32 128 192  32 128 192  32 128 192  32 128 192
32 128 192  32 128 192  32 128 192  32 128 192
32 128 192  32 128 192  32 128 192  32 128 192  32 128 192  32 128 192
32 128 192  32 128 192  32 128 192  32 128 192  32 128 192  32 128 192
32 128 192  32 128 192  96 160 192  255 255 255  166 202 240  166 202 240
255 255 255  166 202 240  166 202 240  255 255 255  32 128 192  32 128 192
166 202 240  255 255 255  255 255 255  96 160 192  32 128 192  32 128 192
32 128 192  32 128 192  32 128 192  32 128 192  96 160 192  255 255 255
166 202 240  32 128 192  32 128 192  166 202 240  255 255 255  64 160 192
32 128 192  32 128 192  166 202 240  255 255 255  166 202 240  32 128 192
64 160 192  32 128 192  32 128 192  32 128 192  32 128 192  32 128 192
32 128 192  32 128 192  32 128 192  32 128 192  32 128 192  32 128 192
32 128 192  32 128 192  32 128 192  32 128 192
32 128 192  32 128 192  32 128 192  32 128 192  32 128 192  32 128 192
32 128 192  32 128 192  32 128 192  32 128 192  32 128 192  32 128 192
32 128 192  32 128 192  96 160 192  255 255 255  0 96 192  96 160 192
255 255 255  0 96 192  64 128 192  255 255 255  64 128 192  128 160 192
96 160 192  128 192 192  255 255 255  166 202 240  96 160 192  96 160 192
64 160 192  32 128 192  32 128 192  32 128 192  166 202 240  255 255 255
64 160 192  32 128 192  32 128 192  166 202 240  255 255 255  96 160 192
0 96 192  166 202 240  255 255 255  255 251 240  64 128 192  0 96 192
166 202 240  32 128 192  32 128 192  32 128 192  32 128 192  32 128 192
32 128 192  32 128 192  32 128 192  32 128 192  32 128 192  32 128 192
32 128 192  32 128 192  32 128 192  32 128 192
32 128 192  32 128 192  32 128 192  32 128 192  32 128 192  32 128 192
32 128 192  32 128 192  32 128 192  32 128 192  32 128 192  32 128 192
32 128 192  32 128 192  128 160 192  255 255 255  128 160 192  166 202 240
255 255 255  166 202 240  166 202 240  255 255 255  166 202 240  255 255 255
255 255 255  255 255 255  255 255 255  255 255 255  255 255 255  255 255 255
96 160 192  32 128 192  32 128 192  0 128 192  255 251 240  255 255 255
32 128 192  32 128 192  32 128 192  166 202 240  255 255 255  166 202 240
0 96 192  166 202 240  255 255 255  166 202 240  166 202 240  128 160 192
255 255 255  32 128 192  32 128 192  32 128 192  32 128 192  32 128 192
32 128 192  32 128 192  32 128 192  32 128 192  32 128 192  32 128 192
32 128 192  32 128 192  32 128 192  32 128 192
32 128 192  32 128 192  32 128 192  32 128 192  32 128 192  32 128 192
32 128 192  32 128 192  32 128 192  32 128 192  32 128 192  32 128 192
32 128 192  32 128 192  96 160 192  166 202 240  166 202 240  255 251 240
255 255 255  166 202 240  166 202 240  166 202 240  64 160 192  32 128 192
32 128 192  166 202 240  255 255 255  32 128 192  166 202 240  255 255 255
32 128 192  32 128 192  32 128 192  64 128 192  255 255 255  255 251 240
32 128 192  32 128 192  32 128 192  255 255 255  255 255 255  166 202 240
32 128 192  32 128 192  96 160 192  255 255 255  255 251 240  255 255 255
166 202 240  32 128 192  32 128 192  32 128 192  32 128 192  32 128 192
32 128 192  32 128 192  32 128 192  32 128 192  32 128 192  32 128 192
32 128 192  32 128 192  32 128 192  32 128 192
32 128 192  32 128 192  32 128 192  32 128 192  32 128 192  32 128 192
32 128 192  32 128 192  32 128 192  32 128 192  32 128 192  32 128 192
32 128 192  32 128 192  32 128 192  0 128 192  0 96 192  96 160 192
255 251 240  0 96 192  0 96 192  32 128 192  32 128 192  32 128 192
32 128 192  166 202 240  255 255 255  64 128 192  255 255 255  166 202 240
32 128 192  32 128 192  32 128 192  32 128 192  64 128 192  64 128 192
32 128 192  32 128 192  64 128 192  255 255 255  166 202 240  255 255 255
64 128 192  32 128 192  32 128 192  32 128 192  96 160 192  96 160 192
32 128 192  32 128 192  32 128 192  32 128 192  32 128 192  32 128 192
32 128 192  32 128 192  32 128 192  32 128 192  32 128 192  32 128 192
32 128 192  32 128 192  32 128 192  32 128 192
32 128 192  32 128 192  32 128 192  32 128 192  32 128 192  32 128 192
32 128 192  32 128 192  32 128 192  32 128 192  32 128 192  32 128 192
32 128 192  32 128 192  166 202 240  255 255 255  255 251 240  255 255 255
255 255 255  255 251 240  255 255 255  255 255 255  64 160 192  32 128 192
32 128 192  166 202 240  255 255 255  32 128 192  64 128 192  64 128 192
32 128 192  32 128 192  32 128 192  32 128 192  32 128 192  32 128 192
32 128 192  32 128 192  166 202 240  255 255 255  32 128 192  255 255 255
166 202 240  32 128 192  32 128 192  32 128 192  32 128 192  32 128 192
32 128 192  32 128 192  32 128 192  32 128 192  32 128 192  32 128 192
32 128 192  32 128 192  32 128 192  32 128 192  32 128 192  32 128 192
32 128 192  32 128 192  32 128 192  32 128 192
32 128 192  32 128 192  32 128 192  32 128 192  32 128 192  32 128 192
32 128 192  32 128 192  32 128 192  32 128 192  32 128 192  32 128 192
32 128 192  32 128 192  96 160 192  166 202 240  128 192 192  166 202 240
255 255 255  128 192 192  128 192 192  166 202 240  64 128 192  32 128 192
32 128 192  166 202 240  255 255 255  32 128 192  32 128 192  32 128 192
32 128 192  32 128 192  32 128 192  32 128 192  32 128 192  32 128 192
32 128 192  96 160 192  255 255 255  166 202 240  0 96 192  166 202 240
255 255 255  96 160 192  32 128 192  32 128 192  32 128 192  32 128 192
32 128 192  32 128 192  32 128 192  32 128 192  32 128 192  32 128 192
32 128 192  32 128 192  32 128 192  32 128 192  32 128 192  32 128 192
32 128 192  32 128 192  32 128 192  32 128 192
32 128 192  32 128 192  32 128 192  32 128 192  32 128 192  32 128 192
32 128 192  32 128 192  32 128 192  32 128 192  32 128 192  32 128 192
32 128 192  32 128 192  32 128 192  0 96 192  0 96 192  96 160 192
255 255 255  32 128 192  0 96 192  32 128 192  64 128 192  32 128 192
32 128 192  166 202 240  255 255 255  32 128 192  32 128 192  32 128 192
32 128 192  32 128 192  32 128 192  32 128 192  32 128 192  32 128 192
64 128 192  255 255 255  255 255 255  32 128 192  32 128 192  32 128 192
255 255 255  255 255 255  96 160 192  32 128 192  32 128 192  32 128 192
32 128 192  32 128 192  32 128 192  32 128 192  32 128 192  32 128 192
32 128 192  32 128 192  32 128 192  32 128 192  32 128 192  32 128 192
32 128 192  32 128 192  32 128 192  32 128 192
32 128 192  32 128 192  32 128 192  32 128 192  32 128 192  32 128 192
32 128 192  32 128 192  32 128 192  32 128 192  32 128 192  32 128 192
32 128 192  32 128 192  166 202 240  128 160 192  166 202 240  166 202 240
255 255 255  255 251 240  255 255 255  255 255 255  96 160 192  32 128 192
32 128 192  128 192 192  255 255 255  32 128 192  32 128 192  32 128 192
32 128 192  32 128 192  32 128 192  32 128 192  0 96 192  96 160 192
255 255 255  255 255 255  96 160 192  32 128 192  32 128 192  32 128 192
64 128 192  255 255 255  255 255 255  166 202 240  32 128 192  32 128 192
32 128 192  32 128 192  32 128 192  32 128 192  32 128 192  32 128 192
32 128 192  32 128 192  32 128 192  32 128 192  32 128 192  32 128 192
32 128 192  32 128 192  32 128 192  32 128 192
32 128 192  32 128 192  32 128 192  32 128 192  32 128 192  32 128 192
32 128 192  32 128 192  32 128 192  32 128 192  32 128 192  32 128 192
32 128 192  32 128 192  255 255 255  255 255 255  255 255 255  255 251 240
166 202 240  166 202 240  166 202 240  96 160 192  32 128 192  96 160 192
64 128 192  166 202 240  255 255 255  32 128 192  32 128 192  32 128 192
32 128 192  32 128 192  32 128 192  64 160 192  166 202 240  255 255 255
255 255 255  96 160 192  32 128 192  32 128 192  32 128 192  32 128 192
32 128 192  32 128 192  255 255 255  255 255 255  255 255 255  166 202 240
128 160 192  32 128 192  32 128 192  32 128 192  32 128 192  32 128 192
32 128 192  32 128 192  32 128 192  32 128 192  32 128 192  32 128 192
32 128 192  32 128 192  32 128 192  32 128 192
32 128 192  32 128 192  32 128 192  32 128 192  32 128 192  32 128 192
32 128 192  32 128 192  32 128 192  32 128 192  32 128 192  32 128 192
32 128 192  32 128 192  64 128 192  32 128 192  32 128 192  32 128 192
32 128 192  32 128 192  32 128 192  32 128 192  32 128 192  166 202 240
255 255 255  255 255 255  255 251 240  32 128 192  32 128 192  32 128 192
32 128 192  32 128 192  166 202 240  255 255 255  255 255 255  166 202 240
32 128 192  32 128 192  32 128 192  32 128 192  32 128 192  32 128 192
32 128 192  32 128 192  32 128 192  166 202 240  255 255 255  255 255 255
96 160 192  32 128 192  32 128 192  32 128 192  32 128 192  32 128 192
32 128 192  32 128 192  32 128 192  32 128 192  32 128 192  32 128 192
32 128 192  32 128 192  32 128 192  32 128 192
32 128 192  32 128 192  32 128 192  32 128 192  32 128 192  32 128 192
32 128 192  32 128 192  32 128 192  32 128 192  32 128 192  32 128 192
32 128 192  32 128 192  32 128 192  32 128 192  32 128 192  32 128 192
32 128 192  32 128 192  32 128 192  32 128 192  32 128 192  64 128 192
166 202 240  96 160 192  32 128 192  32 128 192  32 128 192  32 128 192
32 128 192  32 128 192  32 128 192  166 202 240  96 160 192  32 128 192
32 128 192  32 128 192  32 128 192  32 128 192  32 128 192  32 128 192
32 128 192  32 128 192  32 128 192  32 128 192  64 128 192  96 160 192
32 128 192  32 128 192  32 128 192  32 128 192  32 128 192  32 128 192
32 128 192  32 128 192  32 128 192  32 128 192  32 128 192  32 128 192
32 128 192  32 128 192  32 128 192  32 128 192
32 128 192  32 128 192  32 128 192  32 128 192  32 128 192  32 128 192
32 128 192  32 128 192  32 128 192  32 128 192  32 128 192  32 128 192
32 128 192  32 128 192  32 128 192  32 128 192  32 128 192  32 128 192
32 128 192  32 128 192  32 128 192  32 128 192  32 128 192  32 128 192
32 128 192  32 128 192  32 128 192  32 128 192  32 128 192  32 128 192
32 128 192  32 128 192  32 128 192  32 128 192  32 128 192  32 128 192
32 128 192  32 128 192  32 128 192  32 128 192  32 128 192  32 128 192
32 128 192  32 128 192  32 128 192  32 128 192  32 128 192  32 128 192
32 128 192  32 128 192  32 128 192  32 128 192  32 128 192  32 128 192
32 128 192  32 128 192  32 128 192  32 128 192  32 128 192  32 128 192
32 128 192  32 128 192  32 128 192  32 128 192
32 128 192  32 128 192  32 128 192  32 128 192  32 128 192  32 128 192
32 128 192  32 128 192  32 128 192  32 128 192  32 128 192  32 128 192
32 128 192  32 128 192  32 128 192  32 128 192  32 128 192  32 128 192
32 128 192  32 128 192  32 128 192  32 128 192  32 128 192  32 128 192
32 128 192  32 128 192  32 128 192  32 128 192  32 128 192  32 128 192
32 128 192  32 128 192  32 128 192  32 128 192  32 128 192  32 128 192
32 128 192  32 128 192  32 128 192  32 128 192  32 128 192  32 128 192
32 128 192  32 128 192  32 128 192  32 128 192  32 128 192  32 128 192
32 128 192  32 128 192  32 128 192  32 128 192  32 128 192  32 128 192
32 128 192  32 128 192  32 128 192  32 128 192  32 128 192  32 128 192
32 128 192  32 128 192  32 128 192  32 128 192
32 128 192  32 128 192  32 128 192  32 128 192  32 128 192  32 128 192
32 128 192  32 128 192  32 128 192  32 128 192  32 128 192  32 128 192
32 128 192  32 128 192  32 128 192  32 128 192  32 128 192  32 128 192
32 128 192  32 128 192  32 128 192  32 128 192  32 128 192  32 128 192
32 128 192  32 128 192  32 128 192  32 128 192  32 128 192  32 128 192
32 128 192  32 128 192  32 128 192  32 128 192  32 128 192  32 128 192
32 128 192  32 128 192  32 128 192  32 128 192  32 128 192  32 128 192
32 128 192  32 128 192  32 128 192  32 128 192  32 128 192  32 128 192
32 128 192  32 128 192  32 128 192  32 128 192  32 128 192  32 128 192
32 128 192  32 128 192  32 128 192  32 128 192  32 128 192  32 128 192
32 128 192  32 128 192  32 128 192  32 128 192
32 128 192  32 128 192  32 128 192  32 128 192  32 128 192  32 128 192
32 128 192  32 128 192  32 128 192  32 128 192  32 128 192  32 128 192
32 128 192  32 128 192  32 128 192  32 128 192  32 128 192  32 128 192
32 128 192  32 128 192  32 128 192  32 128 192  32 128 192  32 128 192
32 128 192  32 128 192  32 128 192  32 128 192  32 128 192  32 128 192
32 128 192  32 128 192  32 128 192  32 128 192  32 128 192  32 128 192
32 128 192  32 128 192  32 128 192  32 128 192  32 128 192  32 128 192
32 128 192  32 128 192  32 128 192  32 128 192  32 128 192  32 128 192
32 128 192  32 128 192  32 128 192  32 128 192  32 128 192  32 128 192
32 128 192  32 128 192  32 128 192  32 128 192  32 128 192  32 128 192
32 128 192  32 128 192  32 128 192  32 128 192
32 128 192  32 128 192  32 128 192  32 128 192  32 128 192  32 128 192
32 128 192  32 128 192  32 128 192  32 128 192  32 128 192  32 128 192
32 128 192  32 128 192  32 128 192  32 128 192  32 128 192  32 128 192
32 128 192  32 128 192  32 128 192  32 128 192  32 128 192  32 128 192
32 128 192  32 128 192  32 128 192  32 128 192  32 128 192  32 128 192
32 128 192  32 128 192  32 128 192  32 128 192  32 128 192  32 128 192
32 128 192  32 128 192  32 128 192  32 128 192  32 128 192  32 128 192
32 128 192  32 128 192  32 128 192  32 128 192  32 128 192  32 128 192
32 128 192  32 128 192  32 128 192  32 128 192  32 128 192  32 128 192
32 128 192  32 128 192  32 128 192  32 128 192  32 128 192  32 128 192
32 128 192  32 128 192  32 128 192  32 128 192
